<?xml version="1.0" standalone="no"?>
<!DOCTYPE svg PUBLIC "-//W3C//DTD SVG 20010904//EN"
 "http://www.w3.org/TR/2001/REC-SVG-20010904/DTD/svg10.dtd">
<svg version="1.0" xmlns="http://www.w3.org/2000/svg"
 width="285.000000pt" height="300.000000pt" viewBox="0 0 285.000000 300.000000"
 preserveAspectRatio="xMidYMid meet">

<g transform="translate(0.000000,300.000000) scale(0.100000,-0.100000)"
fill="#000000" stroke="none">
<path d="M821 2915 c-8 -41 -15 -147 -17 -254 l-3 -184 -68 -68 c-127 -129
-208 -280 -245 -459 -28 -131 -21 -307 16 -433 58 -196 169 -357 329 -479 150
-113 317 -174 511 -185 l101 -6 70 -62 c133 -118 257 -202 146 -100 -176 163
-388 469 -502 725 -24 52 -44 97 -46 99 -2 3 -28 -20 -58 -49 -41 -41 -55 -50
-55 -35 0 10 -3 15 -7 12 -3 -4 -12 1 -20 11 -8 9 -11 11 -7 3 5 -9 3 -12 -4
-7 -7 4 -12 14 -12 23 0 9 -3 14 -6 10 -6 -6 -34 19 -69 62 -11 14 -14 21 -7
17 7 -5 12 -1 12 10 0 10 -3 14 -7 11 -5 -6 -26 29 -38 63 -1 3 -7 18 -14 34
-23 57 -28 115 -17 199 7 53 13 64 69 125 60 65 60 66 8 17 -29 -27 -75 -81
-102 -119 -27 -39 -49 -65 -49 -60 0 14 83 148 140 224 55 75 54 49 17 300
-22 151 -42 377 -50 570 l-2 55 -14 -70z"/>
<path d="M895 1526 c10 -14 19 -26 22 -26 7 0 -17 39 -28 46 -6 3 -3 -5 6 -20z"/>
<path d="M36 339 c-52 -46 -43 -139 18 -167 43 -21 106 5 106 44 0 18 -24 18
-40 -1 -18 -21 -57 -19 -70 4 -17 33 -12 78 11 94 21 15 59 12 59 -4 0 -5 9
-9 20 -9 23 0 26 22 6 39 -8 7 -30 14 -48 18 -27 4 -41 0 -62 -18z"/>
<path d="M299 331 c-61 -62 -24 -166 59 -166 60 0 92 34 92 94 -1 49 -12 71
-47 89 -37 20 -73 14 -104 -17z m89 -17 c25 -17 31 -81 10 -102 -19 -19 -66
-15 -78 7 -18 34 -12 78 12 95 12 9 25 16 28 16 3 0 16 -7 28 -16z"/>
<path d="M560 260 c0 -83 1 -90 20 -90 18 0 20 7 21 63 l1 62 16 -63 c13 -53
19 -62 36 -60 16 2 24 17 36 63 l15 60 3 -62 c2 -52 6 -63 20 -63 15 0 17 12
17 90 l0 90 -32 0 c-24 0 -33 -5 -34 -17 0 -10 -6 -36 -13 -58 l-13 -40 -17
58 c-16 52 -20 57 -47 57 l-29 0 0 -90z"/>
<path d="M860 260 c0 -83 1 -90 20 -90 16 0 20 7 20 34 0 34 1 35 42 38 34 2
45 8 57 29 13 24 13 29 -2 53 -16 23 -24 26 -77 26 l-60 0 0 -90z m104 51 c12
-19 -7 -41 -35 -41 -24 0 -29 4 -29 25 0 21 5 25 29 25 17 0 32 -4 35 -9z"/>
<path d="M1143 333 c-3 -10 -15 -40 -26 -68 -10 -27 -23 -60 -28 -72 -7 -19
-5 -23 12 -23 12 0 23 8 26 20 4 16 14 20 45 20 31 0 41 -4 45 -20 3 -13 14
-20 28 -20 22 0 22 1 -14 90 -30 76 -39 90 -59 90 -13 0 -25 -8 -29 -17z m35
-91 c-27 -5 -30 1 -17 34 l11 29 13 -30 c12 -27 12 -30 -7 -33z"/>
<path d="M1370 260 c0 -72 3 -90 15 -90 10 0 15 15 17 58 l3 57 35 -57 c26
-42 41 -58 58 -58 21 0 22 3 22 90 0 83 -1 90 -20 90 -18 0 -20 -7 -20 -57
l-1 -58 -35 58 c-23 37 -42 57 -55 57 -17 0 -19 -8 -19 -90z"/>
<path d="M1655 298 c25 -37 35 -64 35 -90 0 -31 4 -38 20 -38 17 0 20 7 20 43
0 23 6 51 13 62 51 74 51 75 28 75 -14 0 -28 -11 -39 -30 -21 -37 -27 -37 -49
0 -11 20 -25 30 -40 30 -23 0 -23 -1 12 -52z"/>
</g>
</svg>
